<svg id="visual" viewBox="0 0 1366 768" width="1366" height="768" xmlns="http://www.w3.org/2000/svg" xmlns:xlink="http://www.w3.org/1999/xlink" version="1.1"><path d="M0 141L7.7 140.2C15.3 139.3 30.7 137.7 45.8 130.8C61 124 76 112 91.2 103.5C106.3 95 121.7 90 136.8 78C152 66 167 47 182.2 55.8C197.3 64.7 212.7 101.3 227.8 128C243 154.7 258 171.3 273.2 153.8C288.3 136.3 303.7 84.7 318.8 71C334 57.3 349 81.7 364.2 99C379.3 116.3 394.7 126.7 409.8 122.5C425 118.3 440 99.7 455.2 110.8C470.3 122 485.7 163 500.8 167.8C516 172.7 531 141.3 546.2 145C561.3 148.7 576.7 187.3 591.8 184C607 180.7 622 135.3 637.2 114.2C652.3 93 667.7 96 683 83.8C698.3 71.7 713.7 44.3 728.8 43.8C744 43.3 759 69.7 774.2 102.8C789.3 136 804.7 176 819.8 160.7C835 145.3 850 74.7 865.2 62.2C880.3 49.7 895.7 95.3 910.8 110.5C926 125.7 941 110.3 956.2 93C971.3 75.7 986.7 56.3 1001.8 61.7C1017 67 1032 97 1047.2 101C1062.3 105 1077.7 83 1092.8 94C1108 105 1123 149 1138.2 149.3C1153.3 149.7 1168.7 106.3 1183.8 110.2C1199 114 1214 165 1229.2 169C1244.3 173 1259.7 130 1274.8 113C1290 96 1305 105 1320.2 125.2C1335.3 145.3 1350.7 176.7 1358.3 192.3L1366 208L1366 0L1358.3 0C1350.7 0 1335.3 0 1320.2 0C1305 0 1290 0 1274.8 0C1259.7 0 1244.3 0 1229.2 0C1214 0 1199 0 1183.8 0C1168.7 0 1153.3 0 1138.2 0C1123 0 1108 0 1092.8 0C1077.7 0 1062.3 0 1047.2 0C1032 0 1017 0 1001.8 0C986.7 0 971.3 0 956.2 0C941 0 926 0 910.8 0C895.7 0 880.3 0 865.2 0C850 0 835 0 819.8 0C804.7 0 789.3 0 774.2 0C759 0 744 0 728.8 0C713.7 0 698.3 0 683 0C667.7 0 652.3 0 637.2 0C622 0 607 0 591.8 0C576.7 0 561.3 0 546.2 0C531 0 516 0 500.8 0C485.7 0 470.3 0 455.2 0C440 0 425 0 409.8 0C394.7 0 379.3 0 364.2 0C349 0 334 0 318.8 0C303.7 0 288.3 0 273.2 0C258 0 243 0 227.8 0C212.7 0 197.3 0 182.2 0C167 0 152 0 136.8 0C121.7 0 106.3 0 91.2 0C76 0 61 0 45.8 0C30.7 0 15.3 0 7.7 0L0 0Z" fill="#9f0000" stroke-linecap="round" stroke-linejoin="miter"></path></svg>