<svg id="visual" viewBox="0 0 675 900" width="675" height="900" xmlns="http://www.w3.org/2000/svg" xmlns:xlink="http://www.w3.org/1999/xlink" version="1.1"><path d="M0 110L3.8 109.3C7.7 108.7 15.3 107.3 22.8 102C30.3 96.7 37.7 87.3 45.2 80.7C52.7 74 60.3 70 67.8 60.7C75.3 51.3 82.7 36.7 90.2 43.5C97.7 50.3 105.3 78.7 112.8 99.5C120.3 120.3 127.7 133.7 135.2 120.2C142.7 106.7 150.3 66.3 157.8 55.7C165.3 45 172.7 64 180.2 77.5C187.7 91 195.3 99 202.8 95.7C210.3 92.3 217.7 77.7 225 86.3C232.3 95 239.7 127 247.2 130.8C254.7 134.7 262.3 110.3 270 113.2C277.7 116 285.3 146 292.8 143.3C300.3 140.7 307.7 105.3 315.2 88.8C322.7 72.3 330.3 74.7 337.8 65.2C345.3 55.7 352.7 34.3 360.2 34C367.7 33.7 375.3 54.3 382.8 80.3C390.3 106.3 397.7 137.7 405.2 125.7C412.7 113.7 420.3 58.3 427.8 48.5C435.3 38.7 442.7 74.3 450 86.2C457.3 98 464.7 86 472.2 72.5C479.7 59 487.3 44 495 48.2C502.7 52.3 510.3 75.7 517.8 78.8C525.3 82 532.7 65 540.2 73.7C547.7 82.3 555.3 116.7 562.8 116.8C570.3 117 577.7 83 585.2 86C592.7 89 600.3 129 607.8 132.2C615.3 135.3 622.7 101.7 630.2 88.3C637.7 75 645.3 82 652.8 97.8C660.3 113.7 667.7 138.3 671.3 150.7L675 163L675 0L671.3 0C667.7 0 660.3 0 652.8 0C645.3 0 637.7 0 630.2 0C622.7 0 615.3 0 607.8 0C600.3 0 592.7 0 585.2 0C577.7 0 570.3 0 562.8 0C555.3 0 547.7 0 540.2 0C532.7 0 525.3 0 517.8 0C510.3 0 502.7 0 495 0C487.3 0 479.7 0 472.2 0C464.7 0 457.3 0 450 0C442.7 0 435.3 0 427.8 0C420.3 0 412.7 0 405.2 0C397.7 0 390.3 0 382.8 0C375.3 0 367.7 0 360.2 0C352.7 0 345.3 0 337.8 0C330.3 0 322.7 0 315.2 0C307.7 0 300.3 0 292.8 0C285.3 0 277.7 0 270 0C262.3 0 254.7 0 247.2 0C239.7 0 232.3 0 225 0C217.7 0 210.3 0 202.8 0C195.3 0 187.7 0 180.2 0C172.7 0 165.3 0 157.8 0C150.3 0 142.7 0 135.2 0C127.7 0 120.3 0 112.8 0C105.3 0 97.7 0 90.2 0C82.7 0 75.3 0 67.8 0C60.3 0 52.7 0 45.2 0C37.7 0 30.3 0 22.8 0C15.3 0 7.7 0 3.8 0L0 0Z" fill="#9f0000" stroke-linecap="round" stroke-linejoin="miter"></path></svg>